<svg width="1705" height="1705" viewBox="0 0 1705 1705" fill="none" xmlns="http://www.w3.org/2000/svg">
<path d="M1656.5 852.5C1656.5 1296.54 1296.54 1656.5 852.5 1656.5C408.463 1656.5 48.5 1296.54 48.5 852.5C48.5 408.463 408.463 48.5 852.5 48.5C1296.54 48.5 1656.5 408.463 1656.5 852.5Z" stroke="black" stroke-width="97"/>
<path d="M699.76 646.479V735.281L490.188 856.052L699.76 966.167V1054.97L394.281 888.021V834.74L699.76 646.479Z" fill="black" stroke="black"/>
<path d="M1008.79 646.479V735.281L1218.36 856.052L1008.79 966.167V1054.97L1314.27 888.021V834.74L1008.79 646.479Z" fill="black" stroke="black"/>
<path d="M895.125 575.438L728.177 1133.11H813.427L980.375 575.438H895.125Z" fill="black" stroke="black"/>
</svg>
