<svg width="600" height="600" viewBox="0 0 600 600" fill="none" xmlns="http://www.w3.org/2000/svg">
<g id="Group">
<path id="Vector" d="M300 600C465.685 600 600 465.685 600 300C600 134.315 465.685 0 300 0C134.315 0 0 134.315 0 300C0 465.685 134.315 600 300 600Z" fill="#2672E4"/>
<path id="Vector_2" d="M191.8 433.333L167.734 163.333H432.267L408.2 433.333L299.867 463.333L191.8 433.333Z" fill="white"/>
<path id="Vector_3" d="M299.8 219H299.933H382.867L382.067 227.867L373.933 319.133H299.933H299.8L257.95 317.5L259.676 333.25L261.401 349L263 362.067L299.933 372V372.067H300L336.867 362.067L340.667 319.133H373.933L367.8 387.667L300 406.467H299.8L232.067 387.667L231.533 382.067L227.667 343.467L261.401 349L259.676 333.25L257.95 317.5L256 286H299.8H299.933H343.667L346.667 252.067H299.933H299.8H220.067H219.933L219.267 244.667L217.8 227.867L217 219H299.8Z" fill="#2672E4"/>
</g>
</svg>
