<svg width="600" height="600" viewBox="0 0 600 600" fill="none" xmlns="http://www.w3.org/2000/svg">
<g id="Group">
<path id="Vector" d="M300 600C465.685 600 600 465.685 600 300C600 134.315 465.685 0 300 0C134.315 0 0 134.315 0 300C0 465.685 134.315 600 300 600Z" fill="#E44D26"/>
<path id="Vector_2" d="M191.8 433.333L167.734 163.333H432.267L408.2 433.333L299.867 463.333L191.8 433.333Z" fill="white"/>
<path id="Vector_3" d="M300.134 219.6H300H217.067L217.867 228.466L226 319.733H300H300.134H340.734L336.934 362.666L300 372.6V372.666H299.934L263.067 362.666L260.734 336.266H242.8H227.467L232.134 388.266L299.934 407.066H300.134L367.867 388.266L368.4 382.666L376.134 295.466L376.934 286.6H368.067H300.134H300H256.267L253.267 252.666H300H300.134H379.867H380L380.667 245.266L382.134 228.466L382.934 219.6H300.134Z" fill="#E44D26"/>
</g>
</svg>
